# xmcd
#
# Track frame offsets: 
#        150
#        17829
#        31709
#        51062
#        75993
#        94578
#        111451
#        129166
#        152199
#        176125
#        195169
#        210158
#        229422
#        251525
#
# Disc length: 3621 seconds
#
# Revision: 2
# Processed by: cddbd v1.5.2PL0 Copyright (c) Steve Scherf et al.
# Submitted via: ExactAudioCopyFreeDBPlugin 1.0
#
DISCID=a40e230e
DTITLE=The James Solberg Band - One Of These Days
DYEAR=1996
DGENRE=Blues
TTITLE0=Too Damn Much Lovin'
TTITLE1=One Of These Days
TTITLE2=One False Move
TTITLE3=Still Called The Blues
TTITLE4=Cheaper To Keep Her
TTITLE5=There Must Be A Better World Somewhere
TTITLE6=Can It Be
TTITLE7=Ringin' In My Head
TTITLE8=Litehouse Keeper
TTITLE9=Nobody To Blame
TTITLE10=Do You Call That A Buddy?
TTITLE11=Love Made A Fool Out Of Me
TTITLE12=Ain't No Way
TTITLE13=Everyday
EXTD=
EXTT0=
EXTT1=
EXTT2=
EXTT3=
EXTT4=
EXTT5=
EXTT6=
EXTT7=
EXTT8=
EXTT9=
EXTT10=
EXTT11=
EXTT12=
EXTT13=
PLAYORDER=
